<?xml version="1.0" encoding="UTF-8" standalone="no"?>
<svg
   xmlns:dc="http://purl.org/dc/elements/1.1/"
   xmlns:cc="http://creativecommons.org/ns#"
   xmlns:rdf="http://www.w3.org/1999/02/22-rdf-syntax-ns#"
   xmlns:svg="http://www.w3.org/2000/svg"
   xmlns="http://www.w3.org/2000/svg"
   xmlns:sodipodi="http://sodipodi.sourceforge.net/DTD/sodipodi-0.dtd"
   xmlns:inkscape="http://www.inkscape.org/namespaces/inkscape"
   width="16"
   height="16"
   version="1.0"
   id="svg2"
   inkscape:version="0.91 r13725"
   sodipodi:docname="english-symbolic.svg">
  <sodipodi:namedview
     pagecolor="#ffffff"
     bordercolor="#666666"
     borderopacity="1"
     objecttolerance="10"
     gridtolerance="10"
     guidetolerance="10"
     inkscape:pageopacity="0"
     inkscape:pageshadow="2"
     inkscape:window-width="1366"
     inkscape:window-height="705"
     id="namedview9"
     showgrid="false"
     inkscape:zoom="21.8125"
     inkscape:cx="-3.0089217"
     inkscape:cy="6.5409494"
     inkscape:window-x="0"
     inkscape:window-y="30"
     inkscape:window-maximized="1"
     inkscape:current-layer="g23861"
     showborder="true">
    <inkscape:grid
       type="xygrid"
       id="grid3336" />
  </sodipodi:namedview>
  <defs
     id="defs12" />
  <metadata
     id="metadata7">
    <rdf:RDF>
      <cc:Work
         rdf:about="">
        <dc:format>image/svg+xml</dc:format>
        <dc:type
           rdf:resource="http://purl.org/dc/dcmitype/StillImage" />
        <dc:title />
      </cc:Work>
    </rdf:RDF>
  </metadata>
  <g
     transform="matrix(0.17300941,0,0,0.17306135,-0.65046463,-0.65306736)"
     id="g23861">
    <path
       style="color:#bebebe;clip-rule:nonzero;display:inline;overflow:visible;visibility:visible;opacity:1;isolation:auto;mix-blend-mode:normal;color-interpolation:sRGB;color-interpolation-filters:linearRGB;solid-color:#000000;solid-opacity:1;fill:#bebebe;fill-opacity:1;fill-rule:nonzero;stroke:none;stroke-width:1.78124988;stroke-linecap:butt;stroke-linejoin:miter;stroke-miterlimit:4;stroke-dasharray:none;stroke-dashoffset:0;stroke-opacity:1;marker:none;color-rendering:auto;image-rendering:auto;shape-rendering:auto;text-rendering:auto;enable-background:new"
       d="m 53.220352,15.33021 9.3285,9.950357 1.7128,1.826635 -0.068,0.07691 a 27.65219,22.393761 54.030402 0 1 3.9094,31.85076 l -23.0309,-21.679282 7.2092,-7.12388 -11.7961,-2.595745 -15.2604,15.064937 7.219,7.114266 7.2092,-7.114266 21.8214,22.563755 a 27.65219,22.393761 54.030402 0 1 -27.9565,-5.364536 l -0.077,0.08653 c -1.8973,-2.023708 -5.818,-1.090562 -8.7963,2.086209 l -6.3674,6.787393 c -2.9782,3.17677 -3.8519,7.369045 -1.9547,9.392753 1.8972,2.023705 5.818,1.09056 8.7963,-2.086211 l 6.3673,-6.797005 c 0.7137,-0.761205 1.2987,-1.579567 1.7612,-2.413085 a 32.710684,27.34436 55.656084 0 0 35.369,5.681799 l 8.6608,8.96013 c 0.6423,0.634038 2.7721,-0.440659 4.7707,-2.413084 1.9986,-1.972435 3.0905,-4.076759 2.4482,-4.710796 l -9.1543,-8.623647 a 32.710684,27.34436 55.656084 0 0 -5.9416,-40.57054 32.710684,27.34436 55.656084 0 0 -16.1797,-9.950357 z"
       id="rect7857-3"
       inkscape:connector-curvature="0" />
  </g>
</svg>
