<?xml version="1.0" encoding="UTF-8" standalone="no"?>
<svg
   xmlns:dc="http://purl.org/dc/elements/1.1/"
   xmlns:cc="http://creativecommons.org/ns#"
   xmlns:rdf="http://www.w3.org/1999/02/22-rdf-syntax-ns#"
   xmlns:svg="http://www.w3.org/2000/svg"
   xmlns="http://www.w3.org/2000/svg"
   xmlns:sodipodi="http://sodipodi.sourceforge.net/DTD/sodipodi-0.dtd"
   xmlns:inkscape="http://www.inkscape.org/namespaces/inkscape"
   width="16"
   height="16"
   version="1.0"
   id="svg2"
   inkscape:version="0.91 r13725"
   sodipodi:docname="russian-symbolic.svg">
  <sodipodi:namedview
     pagecolor="#ffffff"
     bordercolor="#666666"
     borderopacity="1"
     objecttolerance="10"
     gridtolerance="10"
     guidetolerance="10"
     inkscape:pageopacity="0"
     inkscape:pageshadow="2"
     inkscape:window-width="1366"
     inkscape:window-height="705"
     id="namedview9"
     showgrid="false"
     inkscape:zoom="21.8125"
     inkscape:cx="6.0575497"
     inkscape:cy="6.2034144"
     inkscape:window-x="0"
     inkscape:window-y="30"
     inkscape:window-maximized="1"
     inkscape:current-layer="g23861"
     showborder="true">
    <inkscape:grid
       type="xygrid"
       id="grid3336" />
  </sodipodi:namedview>
  <defs
     id="defs12" />
  <metadata
     id="metadata7">
    <rdf:RDF>
      <cc:Work
         rdf:about="">
        <dc:format>image/svg+xml</dc:format>
        <dc:type
           rdf:resource="http://purl.org/dc/dcmitype/StillImage" />
        <dc:title />
      </cc:Work>
    </rdf:RDF>
  </metadata>
  <g
     transform="matrix(0.17300941,0,0,0.17306135,-0.65046463,-0.65306736)"
     id="g23861">
    <path
       style="color:#bebebe;clip-rule:nonzero;display:inline;overflow:visible;visibility:visible;opacity:1;isolation:auto;mix-blend-mode:normal;color-interpolation:sRGB;color-interpolation-filters:linearRGB;solid-color:#000000;solid-opacity:1;fill:#d33636;fill-opacity:1;fill-rule:nonzero;stroke:none;stroke-width:1.78124988;stroke-linecap:butt;stroke-linejoin:miter;stroke-miterlimit:4;stroke-dasharray:none;stroke-dashoffset:0;stroke-opacity:1;marker:none;color-rendering:auto;image-rendering:auto;shape-rendering:auto;text-rendering:auto;enable-background:new"
       d="m 53.220479,15.33021 9.328501,9.950357 1.712804,1.826635 -0.06773,0.07691 a 27.65219,22.393761 54.030402 0 1 3.909456,31.85076 L 45.072555,37.35559 52.281822,30.23171 40.48572,27.635965 25.225298,42.700902 32.444242,49.815168 39.65351,42.700902 61.474847,65.264657 A 27.65219,22.393761 54.030402 0 1 33.518375,59.900121 l -0.07742,0.08653 c -1.897241,-2.023708 -5.818016,-1.090562 -8.796274,2.086209 l -6.367379,6.787393 c -2.978249,3.17677 -3.851969,7.369045 -1.954727,9.392753 1.89725,2.023705 5.818025,1.09056 8.796273,-2.086211 l 6.367379,-6.797005 c 0.713633,-0.761205 1.298697,-1.579567 1.76119,-2.413085 a 32.710684,27.34436 55.656084 0 0 35.368953,5.681799 l 8.660798,8.96013 c 0.642283,0.634038 2.772103,-0.440659 4.770697,-2.413084 1.998594,-1.972435 3.090539,-4.076759 2.44825,-4.710796 L 75.341798,65.851107 A 32.710684,27.34436 55.656084 0 0 69.400204,25.280567 32.710684,27.34436 55.656084 0 0 53.220479,15.33021 Z"
       class="error"
       id="rect7857-3"
       inkscape:connector-curvature="0" />
  </g>
</svg>
